<?xml version="1.0" encoding="UTF-8"?>
<svg xmlns="http://www.w3.org/2000/svg" xmlns:xlink="http://www.w3.org/1999/xlink" viewBox="0 0 889.799 1403.964">
  <defs>
    <linearGradient id="linear-gradient" x1="444.9" y1="380.402" x2="444.9" y2="1403.964" gradientUnits="userSpaceOnUse">
      <stop offset="0" stop-color="#5ec1e8"/>
      <stop offset=".143" stop-color="#5eb4e7"/>
      <stop offset=".403" stop-color="#6194e6"/>
      <stop offset=".749" stop-color="#6460e3"/>
      <stop offset="1" stop-color="#6836e2"/>
    </linearGradient>
    <linearGradient id="linear-gradient-2" x1="444.9" y1="544.855" x2="444.9" y2="1103.661" xlink:href="#linear-gradient"/>
    <linearGradient id="linear-gradient-3" x1="667.349" y1="380.402" x2="667.349" y2="1403.964" gradientUnits="userSpaceOnUse">
      <stop offset="0" stop-color="#002545"/>
      <stop offset=".197" stop-color="#0a2051"/>
      <stop offset=".556" stop-color="#271371"/>
      <stop offset="1" stop-color="#5200a2"/>
    </linearGradient>
    <linearGradient id="linear-gradient-4" x1="498.047" y1="544.855" x2="498.047" y2="1103.661" xlink:href="#linear-gradient-3"/>
    <linearGradient id="linear-gradient-5" x1="448.232" y1="444.296" x2="532.408" y2="444.296" xlink:href="#linear-gradient-3"/>
    <linearGradient id="linear-gradient-6" x1="442.374" y1="161.28" x2="875.928" y2="161.28" xlink:href="#linear-gradient-3"/>
  </defs>
  <g isolation="isolate">
    <g id="Layer_2" data-name="Layer 2">
      <g id="Layer_1-2" data-name="Layer 1">
        <g>
          <polygon points="730.831 380.402 730.831 1019.33 595.975 1113.756 560.995 1138.255 444.9 1219.548 328.804 1138.255 293.824 1113.756 158.969 1019.33 158.969 380.402 0 380.402 0 1092.441 65.426 1138.255 158.969 1203.762 293.824 1298.188 444.9 1403.964 595.975 1298.188 730.831 1203.762 824.373 1138.255 889.799 1092.441 889.799 380.402 730.831 380.402" fill="url(#linear-gradient)" stroke-width="0"/>
          <polygon points="466.159 544.855 444.9 544.855 423.641 544.855 338.605 912.33 444.9 1103.661 551.194 912.33 466.159 544.855" fill="url(#linear-gradient-2)" stroke-width="0"/>
          <path d="m520.355,488.36l-72.123,18.901c-2.197.573-4.468.573-6.665,0l-72.123-18.901c-8.119-2.123-13.329-11.483-11.78-21.13l11.451-71.115c1.39-8.575,7.737-14.783,15.123-14.783h121.323c7.386,0,13.733,6.208,15.123,14.783l11.451,71.115c1.549,9.647-3.661,19.007-11.78,21.13Z" fill="#60c2ec" stroke-width="0"/>
          <path d="m871.122,159.401l-177.294,74.331c-.18.074-.361.127-.541.191l-39.436,70.224c-6.346,11.302-18.307,18.307-31.275,18.307h-355.808c-12.969,0-24.929-7.004-31.275-18.307l-39.543-70.425L18.677,159.401c-6.643-2.791-6.325-12.311.499-14.645L442.374.414c1.231-.414,2.536-.52,3.799-.308h.011c.424.064.838.17,1.242.308l423.198,144.342c6.824,2.335,7.142,11.854.499,14.645Z" fill="#5ecced" stroke-width="0"/>
          <polygon points="444.9 1219.548 444.9 1403.964 889.799 1092.441 889.799 380.402 730.831 380.402 730.831 1019.33 444.9 1219.548" fill="url(#linear-gradient-3)" mix-blend-mode="multiply" opacity=".25" stroke-width="0"/>
          <polygon points="444.9 1103.661 444.9 544.855 466.159 544.855 551.194 912.33 444.9 1103.661" fill="url(#linear-gradient-4)" mix-blend-mode="multiply" opacity=".25" stroke-width="0"/>
          <path d="m520.355,488.36l-72.123,18.901v-125.929h57.329c7.386,0,13.733,6.208,15.123,14.783l11.451,71.115c1.549,9.647-3.661,19.007-11.78,21.13Z" fill="url(#linear-gradient-5)" mix-blend-mode="multiply" opacity=".25" stroke-width="0"/>
          <path d="m871.122,159.401l-177.294,74.331c-.18.074-.361.127-.541.191l-39.436,70.224c-6.346,11.302-18.307,18.307-31.275,18.307h-180.202V.414l3.799-.308h.011c.424.064.838.17,1.242.308l423.198,144.342c6.824,2.335,7.142,11.854.499,14.645Z" fill="url(#linear-gradient-6)" mix-blend-mode="multiply" opacity=".25" stroke-width="0"/>
        </g>
      </g>
    </g>
  </g>
</svg>